# xmcd
#
# Track frame offsets:
#	150
#	53257
#	86128
#	133630
#	171334
#	192986
#	215977
#	257611
#	262740
#	276203
#
# Disc length: 3786 seconds
#
# Revision: 0
# Processed by: cddbd v1.5.2PL0 Copyright (c) Steve Scherf et al.
# Submitted via: audiograbber 1.83.01
#
DISCID=900ec80a
DTITLE=Grateful Dead - 93-04-01 Nassau Veterans Memorial Coliseum, Uniondale NY
DYEAR=1900
DGENRE=
TTITLE0=Space
TTITLE1=Way To Go Home
TTITLE2=Days Between
TTITLE3=Turn On Your Lovelight
TTITLE4=Rain
TTITLE5=SC Cumberland Blues
TTITLE6=SC Lazy River Road
TTITLE7=SC I Fought The Law (aborted)
TTITLE8=SC I Fought The Law
TTITLE9=SC Stage Banter
EXTD=
EXTT0=
EXTT1=
EXTT2=
EXTT3=
EXTT4=
EXTT5=
EXTT6=
EXTT7=
EXTT8=
EXTT9=
PLAYORDER=
